<svg xmlns="http://www.w3.org/2000/svg" viewBox="0 0 400 400">
  <defs>
    <linearGradient id="bg9" x1="0%" y1="0%" x2="100%" y2="100%">
      <stop offset="0%" style="stop-color:#fff9f0;stop-opacity:1" />
      <stop offset="100%" style="stop-color:#fff0f3;stop-opacity:1" />
    </linearGradient>
    <linearGradient id="table9" x1="0%" y1="0%" x2="0%" y2="100%">
      <stop offset="0%" style="stop-color:#fff;stop-opacity:1" />
      <stop offset="100%" style="stop-color:#fef9f9;stop-opacity:1" />
    </linearGradient>
    <filter id="wineShadow">
      <feDropShadow dx="2" dy="2" stdDeviation="2" flood-color="#e74c3c" flood-opacity="0.3"/>
    </filter>
  </defs>
  <rect width="400" height="400" fill="url(#bg9)" rx="25"/>
  <path d="M50 280 L350 280 L350 400 L50 400 Z" fill="#f5deb3" opacity="0.4"/>
  <rect x="100" y="200" width="200" height="80" rx="4" fill="url(#table9)" stroke="#e74c3c" stroke-width="1.5" filter="url(#wineShadow)"/>
  <circle cx="130" cy="240" r="12" fill="#ffe0e6" stroke="#e74c3c" stroke-width="1"/>
  <circle cx="130" cy="240" r="5" fill="#ff9999" opacity="0.6"/>
  <rect x="160" y="215" width="80" height="4" rx="2" fill="#ccc"/>
  <rect x="160" y="225" width="60" height="3" rx="2" fill="#ddd"/>
  <rect x="160" y="233" width="70" height="3" rx="2" fill="#ccc"/>
  <rect x="280" y="220" width="6" height="40" rx="3" fill="#c0392b"/>
  <circle cx="283" cy="220" r="12" fill="#fff" stroke="#e74c3c" stroke-width="1" filter="url(#wineShadow)"/>
  <path d="M283 220 L283 210 M275 214 L283 220 L291 214" stroke="#c0392b" stroke-width="1.5" fill="none"/>
  <text x="200" y="160" font-family="Georgia, serif" font-size="22" fill="#c0392b" text-anchor="middle" font-weight="bold">Dinner for two?</text>
  <text x="200" y="190" font-family="Georgia, serif" font-size="16" fill="#d6336c" text-anchor="middle" font-style="italic">I promise to make it worth your time</text>
  <text x="200" y="320" font-family="Georgia, serif" font-size="14" fill="#888" text-anchor="middle">Reservation for 2: Me &amp; You</text>
</svg>
