<svg xmlns="http://www.w3.org/2000/svg" viewBox="0 0 400 400">
  <defs>
    <linearGradient id="bg7" x1="0%" y1="0%" x2="100%" y2="100%">
      <stop offset="0%" style="stop-color:#1a1a2e;stop-opacity:1" />
      <stop offset="100%" style="stop-color:#2d1b4e;stop-opacity:1" />
    </linearGradient>
    <radialGradient id="glow7" cx="50%" cy="50%" r="50%">
      <stop offset="0%" style="stop-color:#ff6b8a;stop-opacity:1" />
      <stop offset="100%" style="stop-color:#e74c3c;stop-opacity:1" />
    </radialGradient>
    <filter id="glow7filter" x="-100%" y="-100%" width="300%" height="300%">
      <feGaussianBlur stdDeviation="8" result="coloredBlur"/>
      <feMerge>
        <feMergeNode in="coloredBlur"/>
        <feMergeNode in="SourceGraphic"/>
      </feMerge>
    </filter>
  </defs>
  <rect width="400" height="400" fill="url(#bg7)" rx="25"/>
  <path d="M200 320 C 100 250, 60 180, 100 120 C 140 60, 180 90, 200 140 C 220 90, 260 60, 300 120 C 340 180, 300 250, 200 320 Z"
        fill="url(#glow7)" filter="url(#glow7filter)"/>
  <path d="M200 330 C 110 260, 70 190, 110 130 C 150 70, 190 100, 200 150 C 210 100, 250 70, 290 130 C 330 190, 290 260, 200 330 Z"
        fill="url(#glow7)" transform="scale(0.85) translate(17, 49)"/>
  <text x="200" y="370" font-family="Georgia, serif" font-size="26" fill="#fff" text-anchor="middle" font-weight="bold" filter="url(#glow7filter)">Will you be mine?</text>
  <text x="200" y="395" font-family="Georgia, serif" font-size="16" fill="#ffb3c6" text-anchor="middle" opacity="0.9">Forever and always</text>
</svg>
