<svg xmlns="http://www.w3.org/2000/svg" viewBox="0 0 400 400">
  <defs>
    <linearGradient id="roseGrad1" x1="0%" y1="0%" x2="100%" y2="100%">
      <stop offset="0%" style="stop-color:#e74c3c;stop-opacity:1" />
      <stop offset="100%" style="stop-color:#c0392b;stop-opacity:1" />
    </linearGradient>
    <linearGradient id="roseGrad2" x1="0%" y1="0%" x2="100%" y2="100%">
      <stop offset="0%" style="stop-color:#e84393;stop-opacity:1" />
      <stop offset="100%" style="stop-color:#d6336c;stop-opacity:1" />
    </linearGradient>
    <linearGradient id="leafGrad" x1="0%" y1="0%" x2="100%" y2="100%">
      <stop offset="0%" style="stop-color:#27ae60;stop-opacity:1" />
      <stop offset="100%" style="stop-color:#1e8449;stop-opacity:1" />
    </linearGradient>
  </defs>
  <rect width="400" height="400" fill="#fef9f9" rx="20"/>
  <g transform="translate(120, 100)">
    <ellipse cx="80" cy="280" rx="30" ry="50" fill="url(#leafGrad)" transform="rotate(-30 80 280)"/>
    <ellipse cx="120" cy="290" rx="25" ry="45" fill="url(#leafGrad)" transform="rotate(20 120 290)"/>
    <path d="M80 200 C 60 180, 40 160, 50 130 C 60 100, 80 110, 80 130 C 80 110, 100 100, 110 130 C 120 160, 100 180, 80 200 Z"
          fill="url(#roseGrad1)" transform="scale(1.2)"/>
    <path d="M80 200 C 55 175, 35 150, 45 120 C 55 90, 80 105, 80 125 C 80 105, 105 90, 115 120 C 125 150, 105 175, 80 200 Z"
          fill="url(#roseGrad2)" transform="scale(0.9) translate(9, 22)"/>
    <path d="M80 200 C 50 170, 30 145, 40 115 C 50 85, 80 100, 80 120 C 80 100, 110 85, 120 115 C 130 145, 110 170, 80 200 Z"
          fill="url(#roseGrad1)" transform="scale(0.7) translate(34, 65)"/>
  </g>
  <text x="200" y="360" font-family="Georgia, serif" font-size="20" fill="#c0392b" text-anchor="middle" font-style="italic">A Rose for You</text>
</svg>
